<?xml version="1.0" encoding="utf-8"?>
<!-- Generator: Adobe Illustrator 27.3.1, SVG Export Plug-In . SVG Version: 6.00 Build 0)  -->
<svg version="1.1" id="Layer_1" xmlns="http://www.w3.org/2000/svg" xmlns:xlink="http://www.w3.org/1999/xlink" x="0px" y="0px"
	 viewBox="0 0 1024 1024" style="enable-background:new 0 0 1024 1024;" xml:space="preserve">
<style type="text/css">
	.st0{fill:#242526;}
	.st1{fill:#FBFDAD;}
	.st2{fill:#FFFA8D;}
	.st3{fill:#B1EF40;}
	.st4{fill:#F3FB6D;}
	.st5{fill:#E2FC4F;}
	.st6{fill:#C9FA34;}
	.st7{fill:#EFA008;}
	.st8{fill:#47B843;}
	.st9{fill:#FFC91F;}
	.st10{fill:#EFE583;}
	.st11{fill:#FFCF2D;}
	.st12{fill:#91E24E;}
	.st13{fill:#FEF37D;}
	.st14{fill:#FEDE37;}
	.st15{fill:#C6F343;}
	.st16{fill:#FFD434;}
	.st17{fill:#FFDD40;}
	.st18{fill:#FFCF3D;}
	.st19{fill:#FFC733;}
	.st20{fill:#9EE33D;}
	.st21{fill:#FFEF59;}
	.st22{fill:#FFED69;}
	.st23{fill:#FCA121;}
	.st24{fill:#4CCA56;}
	.st25{fill:#FFAA22;}
	.st26{fill:#14AF61;}
	.st27{fill:#FFDE4D;}
	.st28{fill:#FFD949;}
	.st29{fill:#FFF16F;}
	.st30{fill:#8ADC3B;}
	.st31{fill:#FE8227;}
	.st32{fill:#FFB82A;}
	.st33{fill:#07725F;}
	.st34{fill:#FFE94C;}
	.st35{fill:#FFC32C;}
	.st36{fill:#FA4B3F;}
	.st37{fill:#F8C635;}
	.st38{fill:#FC4332;}
	.st39{fill:#FE592F;}
	.st40{fill:#FF5E2F;}
	.st41{fill:#FF532C;}
	.st42{fill:#FD4F37;}
	.st43{fill:#FAB13F;}
	.st44{fill:#FC6A28;}
	.st45{fill:#F92936;}
	.st46{fill:#FE3B2F;}
	.st47{fill:#F57E2C;}
	.st48{fill:#EA1833;}
	.st49{fill:#E10E2E;}
	.st50{fill:#F03137;}
	.st51{fill:#FE2333;}
	.st52{fill:#FE3B36;}
	.st53{fill:#9B0122;}
	.st54{fill:#FD393B;}
	.st55{fill:#F91F37;}
	.st56{fill:#DB0E2D;}
	.st57{fill:#C10527;}
	.st58{fill:#FA2234;}
	.st59{fill:#D4062B;}
	.st60{fill:#F95757;}
	.st61{fill:#F12629;}
	.st62{fill:#FF413D;}
	.st63{fill:#EF2437;}
	.st64{fill:#BC0029;}
</style>
<path class="st0" d="M101.3,0h820.3C978.2,0,1024,45.8,1024,102.4v820.3c0,55.9-45.4,101.3-101.3,101.3H101.3
	C45.4,1024,0,978.6,0,922.7V101.3C0,45.4,45.4,0,101.3,0z"/>
<g>
	<path class="st1" d="M438.8,112.3l6.2,0.2c0.6,0,0.6,0.2,0.2,0.5c-1.6,1.2-3.4,2.1-5.3,2.7c-0.3,0.2-0.6,0.2-0.9,0.1
		c-0.4-0.1-0.7,0-0.9,0.3c-0.3,0.5-0.8,0.9-1.4,0.9c-2.6,0.2-5.2,0.4-7.6,0.4c-1.8,0-3.7,0.4-5.5,1.1c-2.5,0.9-4.8,1.4-6.9,1.3
		c-8.8-0.2-18.4-0.5-28.5-0.9c-3.4-0.1-7-0.1-10.7,0.1c-4.1,0.2-8.4,0-12.7-0.5c-5.2-0.6-10.5-0.9-15.9-0.7c-0.6,0-1.3-0.2-1.8-0.5
		c-0.3-0.2-0.5-0.3-0.8-0.3c-4.6,0-9.3,0-13.9,0c-0.6,0-1.3-0.1-1.8-0.3c-0.6-0.2-1.3-0.2-2,0.1c-0.3,0.2-0.7,0.2-1.1,0.2
		c-11.7-0.9-23.4-1.1-34.8-0.5c-3.2,0.2-6.3,0.2-9.1,0c-3-0.2-5.9-0.2-8.9,0c-8.4,0.6-16.6,0.7-24.6,0.3c-6-0.3-12.3-0.2-18.8,0.2
		c-2.8,0.2-4.1,1.4-6.7,2c-0.6,0.1-1,0.5-1.2,1.1c-0.9,4.3-2.3,8.5-3.9,12.7c-2,4.9-3.7,10.2-5.3,15.7c-0.9,3.1-2,6.2-3.3,9
		c-1.6,3.7-3.2,6.5-4.8,8.2c-4.4,5.2-8.5,10.7-12.5,16.6l-7.2,0.4l-0.2-69.5c0-0.4,0.3-0.7,0.7-0.7l186.6,0.1L438.8,112.3z"/>
	<path class="st2" d="M438.8,112.3c52-0.4,94.1-1.3,141.7,4.1c-3.8,1.9-7.6,2.6-11.6,2.3c-5.5-0.5-8.4-0.6-8.6-0.6
		c-3,0-5.9-0.1-8.4-0.4c-2.4-0.2-4.7,1.1-7.4-0.5c-0.5-0.3-1-0.5-1.6-0.5c-6.6-0.3-13.1,0.8-19.8,0.8c-9.7,0.1-19.3,0.1-29,0
		c-1.7,0-3.3,0.9-5.1,0.7c-2.3-0.2-3.4-0.2-3.7-0.2c-15.9,1.3-32.4,2.3-49.5,2.9c-0.1,0-2.3-0.1-6.9-0.3c-2.6-0.1-5.2,0.2-7.8,0.9
		c-0.6,0.2-0.7,0.5-0.3,0.9c0.5,0.5,0.5,1,0.1,1.6c-0.3,0.5-0.5,1.1-0.5,1.7c0.3,4.4,1.7,8.4,4.1,12c0.2,0.2,0.2,0.5,0,0.6
		c-0.1,0.2-0.2,0.2-0.5,0.3c-0.5,0.2-0.5,0.3,0.1,0.2c0.7-0.2,1.4-0.2,2,0c0.5,0.2,0.5,0.3,0,0.5l-1.4,0.4
		c-16.6,1.6-30.5,8.8-41.6,21.7c-6.4-0.9-12.7-1.4-19.1-1.4c-42.6,0.1-85.6,0.2-129,0.3c-3-1-5.4-2-7.2-2.8c-4.5-2.1-4.9-1.4-1.5,2
		c6.5,6.5,13.7,13.2,21.5,20.2c0,1-0.5,1.6-1.3,1.6c-15.7,0.8-33.3,1-52.8,0.7c4-5.9,8.1-11.4,12.5-16.6c1.5-1.8,3.1-4.5,4.8-8.2
		c1.3-2.9,2.3-5.9,3.3-9c1.6-5.5,3.4-10.8,5.3-15.7c1.6-4.1,2.9-8.4,3.9-12.7c0.2-0.6,0.5-1,1.2-1.1c2.6-0.5,3.9-1.7,6.7-2
		c6.5-0.4,12.7-0.5,18.8-0.2c8,0.4,16.3,0.3,24.6-0.3c3-0.2,5.9-0.2,8.9,0c2.8,0.2,5.9,0.2,9.1,0c11.5-0.6,23.1-0.4,34.8,0.5
		c0.4,0,0.8-0.1,1.1-0.2c0.6-0.3,1.3-0.3,2-0.1c0.5,0.2,1.1,0.3,1.8,0.3c4.6,0,9.3,0,13.9,0c0.2,0,0.5,0.1,0.8,0.3
		c0.5,0.4,1.1,0.5,1.8,0.5c5.5-0.2,10.8,0.1,15.9,0.7c4.4,0.5,8.6,0.7,12.7,0.5c3.7-0.2,7.3-0.2,10.7-0.1
		c10.2,0.3,19.6,0.6,28.5,0.9c2.1,0.1,4.4-0.4,6.9-1.3c2-0.7,3.8-1.1,5.5-1.1c2.4,0,5-0.2,7.6-0.4c0.6-0.1,1.1-0.4,1.4-0.9
		c0.2-0.3,0.5-0.4,0.9-0.3c0.3,0.1,0.6,0.1,0.9-0.1c2-0.6,3.7-1.6,5.3-2.7c0.5-0.4,0.4-0.5-0.2-0.5L438.8,112.3z"/>
	<path class="st3" d="M860.4,192.6c-21.5-2.4-36.8-22.2-34.3-44.1c2.5-21.9,22-37.7,43.4-35.2c21.5,2.4,36.8,22.2,34.3,44.1
		C901.3,179.3,881.9,195,860.4,192.6z M881,152.6c0-9-7.3-16.3-16.3-16.3l0,0c-9,0-16.3,7.3-16.3,16.3l0,0c0,9,7.3,16.3,16.3,16.3
		l0,0C873.7,168.9,881,161.6,881,152.6L881,152.6z"/>
	<path class="st4" d="M580.5,116.4c13.4,1.5,26.9,4.1,40.5,8c-0.2,2.4-2.8,3.2-7.9,2.5c-1.2-0.2-2.6-0.5-4.3-1.2
		c-3.8-1.3-6.5-2.1-10.8-2.2c-5.7-0.1-11.4-0.5-17.1-1.4c-1.7-0.2-3.1-1.4-5.3-1.5c-7.4-0.3-15-0.5-22.8-0.6c-3.1,0-6.1,0.5-8.8,1.6
		c-3.6,1.4-7.3,2.2-11.4,2.5c-0.6,0-1.3,0.2-1.8,0.5c-0.5,0.2-1.1,0.4-1.7,0.5c-10,1.4-21.2,3.6-33.5,6.4c-5.7,1.3-12,3.4-18.8,6.4
		c-2.3,1-5,2.7-8.2,5.3c-3,2.4-6.3,4.3-9.7,5.7c-10.3-6.6-21.6-9.5-33.9-9l1.4-0.4c0.5-0.2,0.5-0.3,0-0.5c-0.5-0.2-1.2-0.2-2,0
		c-0.6,0.2-0.6,0.1-0.1-0.2c0.2-0.1,0.3-0.2,0.5-0.3c0.2-0.2,0.2-0.4,0-0.6c-2.5-3.6-3.9-7.7-4.1-12c-0.1-0.6,0.1-1.2,0.5-1.7
		c0.4-0.5,0.3-1.1-0.1-1.6c-0.5-0.5-0.3-0.8,0.3-0.9c2.6-0.7,5.2-0.9,7.8-0.9c4.5,0.2,6.8,0.3,6.9,0.3c17.2-0.6,33.7-1.6,49.5-2.9
		c0.2,0,1.5,0,3.7,0.2c1.8,0.2,3.4-0.8,5.1-0.7c9.7,0.1,19.4,0.1,29,0c6.6-0.1,13.1-1.1,19.8-0.8c0.5,0,1.1,0.2,1.6,0.5
		c2.7,1.6,5,0.2,7.4,0.5c2.7,0.2,5.5,0.4,8.4,0.4c0.2,0,3,0.2,8.6,0.6C572.9,118.9,576.7,118.2,580.5,116.4z"/>
	<path class="st5" d="M620.9,124.3c32,7.6,62.7,19.5,91.9,36c0.5,1.5-0.8,2.3-3.7,2.3c-1.4,0-2.7-0.2-3.8-0.9
		c-3.1-1.6-6.3-3.3-9.3-5.1c-0.2-0.1-0.2-0.1-0.4-0.1c-0.2,0-0.3,0-0.5,0c-0.3,0-0.6-0.1-0.9-0.2c-3.7-2.8-7.3-5.3-11.8-6.8
		c-3-1-5.9-2.3-8.8-4.1c-2.4-1.5-5.1-2.4-8-2.8c-2-0.2-3-1.2-4.5-2.3c-0.4-0.3-0.9-0.5-1.4-0.6c-4.9-0.6-10.1-2-15.4-4.1
		c-3.2-1.3-6.5-1.6-9.8-1.1c-0.5,0.1-1,0.4-1.3,0.9l-5.5,9.8c-0.2,0.4-0.6,0.7-1.1,0.9c-2.3,0.9-4,2.7-4.9,5.8
		c-0.2,0.5-0.5,0.9-0.9,1.1c-0.4,0.2-0.7,0.4-0.9,0.5c-0.5,0.5-0.7,0.5-0.5-0.2l0.2-0.9c0.2-0.6-0.1-0.9-0.7-0.7
		c-0.8,0.2-1.5,0.7-2.1,1.5c-0.5,0.6-1.2,1.1-2,1.3c-1.4,0.3-2.3,1.2-3,2.7c-0.3,0.7-0.8,1.2-1.5,1.4l-9,3.1
		c-0.7,0.2-0.9,0.7-0.6,1.4c0.2,0.5,0.7,0.9,1.3,1c0.5,0.2,0.5,0.3,0.1,0.6c-0.5,0.3-1.3,0.5-2,0.4c-18.4-3.9-39-5.9-61.6-5.9
		c-34.9,0-57.3,0.2-67.2,0.5L459,148.6c3.4-1.4,6.6-3.3,9.7-5.7c3.2-2.5,5.9-4.3,8.2-5.3c6.8-3,13-5.2,18.8-6.4
		c12.3-2.8,23.5-5,33.5-6.4c0.6-0.1,1.2-0.2,1.7-0.5s1.2-0.4,1.8-0.5c4.1-0.3,7.9-1.1,11.4-2.5c2.7-1.1,5.6-1.6,8.8-1.6
		c7.8,0.1,15.4,0.3,22.8,0.6c2.3,0.1,3.6,1.3,5.3,1.5c5.7,0.9,11.4,1.3,17.1,1.4c4.3,0.1,7,0.9,10.8,2.2c1.7,0.6,3.1,1,4.3,1.2
		C618.1,127.5,620.8,126.8,620.9,124.3z"/>
	<path class="st6" d="M712.8,160.4l18.5,11.3c20.2,13.8,37.7,27.1,54.5,44.5c-0.1,1.3,0.3,2.9,1.3,4.6c0.3,0.5,0.2,0.8-0.5,0.7
		c-7.4-1-14.9-1.1-22.5-0.2c-0.1,0-0.2,0.1-0.3,0.2c-0.1,0.2-0.2,0.2-0.3,0.4c-0.3,0.4-0.6,0.6-1.2,0.6c-3.4,0.2-6.9,0.6-10.3,1.4
		c-1.8,0.4-2.7,1.5-4.1,2.7c-0.2,0.2-0.4,0.2-0.6,0.3l-8,2c-0.5,0.1-0.9,0-1.4-0.3c-1.1-0.9-2.4-1.1-3.9-0.7
		c-38.6-31.1-85.5-51.6-134.3-62.3c0.8,0.1,1.5-0.1,2-0.4c0.5-0.2,0.5-0.5-0.1-0.6c-0.5-0.2-1-0.5-1.3-1c-0.3-0.7-0.2-1.2,0.6-1.4
		l9-3.1c0.7-0.2,1.2-0.7,1.5-1.4c0.6-1.5,1.6-2.4,3-2.7c0.8-0.2,1.5-0.6,2-1.3c0.6-0.8,1.4-1.3,2.1-1.5c0.6-0.2,0.9,0.1,0.7,0.7
		l-0.1,0.7c-0.2,0.7,0,0.8,0.5,0.2c0.2-0.2,0.5-0.4,0.9-0.5c0.5-0.2,0.8-0.6,0.9-1.1c0.9-3,2.6-4.9,4.9-5.8c0.5-0.2,0.8-0.5,1.1-0.9
		l5.5-9.8c0.2-0.5,0.7-0.8,1.3-0.9c3.4-0.5,6.7-0.2,9.8,1.1c5.3,2.1,10.5,3.4,15.4,4.1c0.5,0.1,1,0.2,1.4,0.6
		c1.5,1.1,2.5,2.1,4.5,2.3c2.9,0.4,5.5,1.3,8,2.8c2.8,1.7,5.7,3.1,8.8,4.1c4.5,1.5,8,4,11.8,6.8c0.2,0.2,0.5,0.3,0.9,0.2
		c0.2,0,0.3,0,0.5,0s0.3,0,0.4,0.1c3.1,1.7,6.2,3.4,9.3,5.1c1.2,0.6,2.4,0.9,3.8,0.9C712,162.5,713.3,161.8,712.8,160.4z"/>
	<path class="st7" d="M235,160.4l24.5,20.7l-9.2,0.4l-2.5-1.6c-7.9-7-15-13.8-21.5-20.2c-3.4-3.4-3-4.1,1.5-2
		C229.7,158.5,232.1,159.4,235,160.4z"/>
	<path class="st8" d="M599.9,165.3c48.8,10.7,95.6,31.2,134.3,62.3c20.4,16.3,38.8,34.6,55.5,54.9c10.9,13.4,19.5,28,28.7,42.9
		l12.3,24.8l14.9,44l-17.5-6.9c-0.5-0.2-0.9-0.2-1.4-0.3h-1.2c-0.6,0-1-0.3-1.3-0.9c-0.2-0.5-0.4-0.8-0.9-0.9
		c-1.2-0.3-1.8-1.2-1.7-2.4c0-0.5-0.2-1.1-0.5-1.6c-1.6-2.6-3.4-4.4-5.5-5.4c-3.4-8-6.8-16-10.5-24.1c-8.4-18.8-18.8-36.5-31-53
		c-5.3-7.2-11.9-14.9-19.6-23.1C740,260,725.5,246.1,707.9,234c-36.1-24.9-75.6-41.5-118.5-49.7c-11.4-2.2-28.4-3.5-50.8-4.1
		c-17.8-0.5-36.6-0.6-56.2-0.5c-0.5,0-0.9-0.2-1.3-0.8l-10.2-19c9.8-0.3,32.3-0.5,67.2-0.5C560.9,159.4,581.4,161.4,599.9,165.3z"/>
	<path class="st9" d="M383.2,161.5c-3.8,5.5-6.7,11.5-8.8,17.8c-0.3,1-1.3,1.6-2.3,1.6l-112.5,0.2L235,160.4
		c43.4-0.1,86.4-0.2,129-0.3C370.4,160.1,376.8,160.6,383.2,161.5z"/>
	<circle class="st10" cx="428.7" cy="196.8" r="22.4"/>
	<path class="st11" d="M247.8,180l2.5,1.6l0.2,57.8l-63.8-0.1l-0.2-56.6l7.2-0.4c19.5,0.3,37.1,0.1,52.8-0.7
		C247.4,181.4,247.9,181,247.8,180z"/>
	<path class="st12" d="M785.9,216.1l14.2,14.5c21.5,23.3,39.8,49,54.6,76.9c-0.6,0.2-0.9,0.8-0.9,1.8c0.1,0.6-0.2,0.9-0.9,0.9
		c-1.1,0-1.8-0.5-2-1.6c-0.2-0.6-0.5-1.2-1-1.6c-2.4-2-4.4-4.2-5.9-6.8c-0.3-0.5-0.7-0.9-1.3-1.1c-4.5-1.8-8.4-0.8-11.6,3
		c-1.8,2.1-4.9,7.7-9.3,16.6c-1.2,2.3-2.3,4.6-3.5,7c-9.1-14.9-17.7-29.5-28.7-42.9c-16.6-20.2-35.1-38.6-55.5-54.9
		c1.5-0.4,2.8-0.2,3.9,0.7c0.4,0.3,0.9,0.4,1.4,0.3l8-2c0.2-0.1,0.5-0.2,0.6-0.3c1.3-1.1,2.3-2.3,4.1-2.7c3.4-0.8,6.8-1.3,10.3-1.4
		c0.5,0,0.9-0.2,1.2-0.6c0.1-0.1,0.2-0.2,0.3-0.4c0.1-0.1,0.2-0.2,0.3-0.2c7.6-0.9,15.1-0.9,22.5,0.2c0.6,0.1,0.8-0.2,0.5-0.7
		C786.2,218.9,785.8,217.4,785.9,216.1z"/>
	<path class="st13" d="M489.1,216.9l-4.8,1.5c-0.5,0.2-0.9,0.5-0.9,1c-0.3,1.3-0.6,2.6-1,3.8c-0.4,1.3-0.5,2.7-0.4,4
		c0.3,4.1,0.5,7.7,0.7,10.8c0.1,1.6,0.9,2.3,2.4,2.3l59-0.8c0.9,0,1.6-0.8,1.6-1.7v-0.1l-1.6-20.3h8.7c0.4,6.6,0.6,13.3,0.5,20
		c0,1.4,0.2,2.7,0.8,3.9l0.7,8c-3.8,1.3-7.3,0.8-10.7-1.5c0.3-1.6-0.5-2.4-2.4-2.4c-11,0-25.1-0.4-42.3-1c-3-0.2-6.3-0.1-9.7,0.2
		c-3.2,0.2-5.7,1.6-7.5,3.9c-0.3,0.5-0.8,0.8-1.3,0.9c-8.2,2.1-16,2.9-23.4,2.2c-0.6-0.1-1.3,0.1-1.9,0.3c-1.5,0.7-3,1.3-4.6,1.6
		c-12,2.8-23.6,3.4-34.8,1.8c-5.2-0.8-10.3-2.7-15.2-5.9c-2.1-1.3-4.4-2.2-6.8-2.6c-2.7-0.4-5.2-0.6-7.5-0.6
		c-11.9,0-23.8,0-35.7-0.1c-1.1,0-2.2,0.1-3.4,0.2l-36.4-0.5c-8.7-0.9-17.7-1-27-0.2v-27c0-0.6,0.3-0.9,0.9-0.9l91.3,0.1
		c0.8,0,1.3,0.3,1.6,1c1.7,4,3.8,8.2,6.6,11.6c18.4,21.6,44.3,27.8,70.1,15.4c5.5-2.7,10.1-6.4,13.8-11.3
		c4.1-5.5,7.5-10.8,10.2-15.8c0.5-1.1,1.6-1.8,2.9-1.8L489.1,216.9z"/>
	<path class="st14" d="M489.1,216.9l54.9,0.5l1.6,20.3c0.1,0.9-0.6,1.7-1.6,1.8h-0.1l-59,0.8c-1.6,0-2.3-0.7-2.4-2.3
		c-0.2-3.2-0.4-6.8-0.7-10.8c-0.1-1.3,0.1-2.7,0.4-4c0.4-1.3,0.7-2.6,1-3.8c0.2-0.5,0.5-0.9,0.9-1L489.1,216.9z"/>
	<path class="st15" d="M552.7,217.5c29.1,0.5,57.1,6.7,83.8,18.5c21.4,9.4,41.7,21.6,61.1,36.7c-0.5,1.1-0.9,1.6-1.5,1.4
		c-0.8-0.3-1.7-0.6-2.7-0.9c-0.5-0.2-0.9-0.1-1.3,0.5c-0.5,0.9-1.3,1.4-2.3,1.6c-2,0.5-2.8,2-5.1,2.1c-6,0.4-12,1.6-17.7,3.8
		c-4.5-3-9.5-6.3-15-9.6c-29.8-18.2-62.2-28.4-97.1-30.9c-0.2,0-0.5,0.1-0.7,0.2c-0.2,0.2-0.2,0.3-0.3,0.5c-0.5-1.3-0.9-2.5-0.8-3.9
		C553.3,230.7,553.1,224.1,552.7,217.5z"/>
	<path class="st13" d="M250.5,239.3v5.7l-63.9,0.6l0.1-6.5L250.5,239.3z"/>
	<path class="st16" d="M250.5,245l-0.3,53.3l-0.1-7.3c0-1.2-1-2.1-2.2-2.1c-0.4,0-0.8,0.2-1.2,0.4c-1.2,0.8-2.7,1.6-4.2,1.7
		c-15.8,0.2-31.6,0.3-47.3,0.2c-2.3,0-4.5-0.5-6.6-1.2c-0.5-0.2-0.9-0.2-1.4,0l-0.7,0.2c0.2-0.2,0.2-0.7-0.2-1.3l0.4-43.1L250.5,245
		z"/>
	<path class="st17" d="M544.1,247.9c-3.4-1.7-7.5-2.1-12.5-1.1c-0.2,0-0.2,0.1-0.3,0.2c-0.1,0.1-0.2,0.2-0.3,0.3
		c-0.2,0.2-0.2,0.2,0.1,0.3l2.1,0.5c0.6,0.2,0.6,0.4,0.2,0.8c-0.2,0.2-0.4,0.2-0.5,0.2c-0.2,0-0.2,0,0,0.1s0.3,0.2,0.3,0.3
		c0,0.2-0.1,0.2-0.2,0.3s-0.3,0.2-0.4,0.2c-0.2,0.1-0.2,0.2-0.2,0.3l-2,6.3c-0.2,0.5-0.5,0.9-0.9,1.3c-2.3,1.6-2.1,4.2-2.9,5.9
		c-1.8,4.1-3.1,7-3.9,8.5c-0.7,1.2-1.1,2.4-1.3,3.5c-0.1,0.5-0.4,1-0.8,1.4c-1.7,1.5-2.7,3.4-2.9,5.6c-0.1,0.6-0.3,1-0.9,1.3
		c-1.5,0.6-1.9,1.8-1.2,3.4c0.3,0.6,0.1,1-0.5,1.2c-0.8,0.2-1.4,0.1-2-0.3c-0.2-0.2-0.2-0.4-0.1-0.5l0,0c0.1-0.2,0.2-0.2,0.2-0.4
		c0.4-0.8,0.2-1.1-0.7-1.2c-0.2,0-0.5,0-0.7,0c-0.4,0.1-0.6,0.3-0.6,0.8c0.1,0.6-0.3,0.9-1.2,0.9c-0.9,0-1,0.2-0.1,0.5
		c1.4,0.5,3.2,0,4.7,0.2c6.3,0.8,12.5,1.6,18.8,2.2c0.3,0,0.5,0.2,0.6,0.5c0.1,0.3,0.3,0.5,0.6,0.5c19.7-0.6,39.1-0.9,58.4-0.9
		c2.6,0,4.8,0.5,7.4,0.4c2-0.2,3.6,0.9,5.4,1.5c0.5,0.2,0.9,0.5,0.9,1.2c0,3.8-0.4,6.4-1.1,7.6c-2.8,4.9-4.5,9.8-4.8,14.8
		c-17.2-9.1-35.5-15.9-54.8-20.3c-0.4-0.1-1.1-0.2-2.3-0.2c-0.8-0.1-1.5-0.2-2.2-0.6c-1-0.5-2-0.9-3.1-1.2c-6-1.7-11.2-2.6-15.5-2.7
		c-21.3-0.9-43-0.9-65.2-0.4c-13.9,0.4-25.5,0.5-34.7,0.5c-24.9,0.1-49.8-0.1-74.8-0.4l-0.5-44.3c1.2-0.2,2.3-0.2,3.4-0.2
		c11.9,0.1,23.8,0.1,35.7,0.1c2.3,0,4.8,0.2,7.5,0.6c2.4,0.4,4.7,1.3,6.8,2.6c4.9,3.1,10,5.2,15.2,5.9c11.2,1.6,22.8,1,34.8-1.8
		c1.6-0.4,3.1-0.9,4.6-1.6c0.6-0.3,1.2-0.4,1.9-0.3c7.4,0.6,15.2-0.1,23.4-2.2c0.5-0.2,1-0.5,1.3-0.9c1.7-2.3,4.2-3.6,7.5-3.9
		c3.4-0.2,6.6-0.3,9.7-0.2c17.1,0.6,31.3,1,42.3,1C543.6,245.4,544.4,246.3,544.1,247.9z"/>
	<path class="st18" d="M311.2,246l0.3,65.1c-0.2,0.9-0.4,1.6-0.8,2.1c-0.3,0.5-0.8,0.7-1.4,0.7c-6.3-0.4-13-0.5-20.2-0.3
		c-1.1,0-2.3,0.2-3.4,0.6c-0.4,0.2-0.9-0.1-0.9-0.5c0-0.1,0-0.2,0-0.2l-0.5-21.6v-46.1C293.6,245,302.6,245,311.2,246z"/>
	<path class="st19" d="M544.1,247.9c3.4,2.2,7,2.7,10.7,1.5c19.1,2.3,36.9,7,53.7,14.1c30.3,12.7,58,29.9,80.7,53.7
		c25.9,27,46.3,58.4,58.8,93.8c-4.1-2.8-6.6-5.5-7.2-7.9c-0.9-3.1-2.1-6.3-3.8-9.4c-0.8-1.3-1.9-1.8-3.4-1.4
		c-4.9,1.3-10.2,1.8-15.7,1.3c-1.2-0.1-2.3,0-3.4,0.3c-2.7,0.8-5.1,1-7.5,2.5c-3.5,2.1-5.1,5.7-4.8,10.9c0.1,1.2-0.3,2.3-1.1,3.4
		c-0.4,0.5-0.5,1.2-0.2,1.9c1.2,3,1.5,6,1,9.3c-0.5,3.3-0.6,6.5-0.3,9.5c0.4,3.9,0.9,7.7,1.6,11.3c0.1,0.5,0.1,1.2-0.2,1.7
		c-0.5,1.6-0.5,3,0.2,4.3c1.5,3,1.6,7,1,10.2c-0.3,2-0.7,4.1-1.2,6.2c-0.5,2.7-1.6,5.3-3,8.1c0,0.1,0,0.2,0.1,0.2c0,0,0,0,0.1,0
		c0.4,0.1,0.5,0.1,0.2,0c-0.1,0-0.1-0.1-0.1-0.2c0.2-2.1,0.7-4.2,1.3-6.4c0.2-0.5,0-0.7-0.5-0.5c-0.2,0.1-0.3,0.2-0.5,0.2
		c-0.5,0.2-0.9,0.7-0.9,1.3c-0.2,2.5-0.2,5.4,0.2,8.8c0.5,4.5,0.3,9.5-0.7,15.4c0,0,0,0-0.1,0l0,0c-0.1,0-0.1,0-0.1-0.1
		c0.3-2-0.1-3.8-1.1-5.3l-1.5-11c0.2-3.5,0.4-7.1,0.4-10.6c0.1-3.4-0.5-6.6-1.5-9.5c-1.4-3.8-2.2-7.9-2.4-12.2
		c0-0.3-0.2-0.5-0.5-0.5c-0.2,0-0.3-0.1-0.4-0.3c-1.3-3.4-2.3-7.6-3.2-12.5c-0.1-0.5-0.3-1.1-0.6-1.6c-0.2-0.3-0.4-0.7-0.5-1.2
		c-0.8-4-1.8-8-3.1-12.2c-0.9-3-1.1-5.7-1.6-8.8c0-0.2,0-0.4,0.1-0.5c0.2-0.2,0.3-0.3,0.5-0.3c0.5-0.1,0.7-0.3,0.6-0.8
		c-0.5-5-1.9-9.1-3.9-12.1c-7-10.4-15.8-21.6-26.3-33.5c-15.2-17.2-33-31.5-53.3-42.7c0.4-4.9,2-9.8,4.8-14.8c0.7-1.2,1-3.7,1.1-7.6
		c0-0.6-0.3-0.9-0.9-1.2c-1.8-0.5-3.4-1.6-5.4-1.5c-2.6,0.2-4.9-0.4-7.4-0.4c-19.2,0-38.7,0.3-58.4,0.9c-0.3,0-0.5-0.2-0.6-0.5
		c-0.1-0.2-0.4-0.5-0.6-0.5c-6.3-0.7-12.5-1.4-18.8-2.2c-1.5-0.2-3.4,0.3-4.7-0.2c-0.9-0.3-0.9-0.5,0.1-0.5c0.9,0,1.3-0.3,1.2-0.9
		c0-0.5,0.2-0.7,0.6-0.8c0.2,0,0.5-0.1,0.7,0c0.9,0,1.1,0.4,0.7,1.2c-0.1,0.2-0.2,0.2-0.2,0.4c-0.2,0.2-0.1,0.4,0.1,0.5l0,0
		c0.5,0.4,1.3,0.5,2,0.3c0.6-0.2,0.8-0.5,0.5-1.2c-0.8-1.6-0.4-2.7,1.2-3.4c0.5-0.2,0.9-0.6,0.9-1.3c0.2-2.3,1.2-4.1,2.9-5.6
		c0.5-0.4,0.7-0.8,0.8-1.4c0.2-1.2,0.6-2.3,1.3-3.5c0.9-1.5,2.2-4.4,3.9-8.5c0.7-1.7,0.5-4.4,2.9-5.9c0.5-0.3,0.8-0.7,0.9-1.3
		l1.9-6.3c0-0.2,0.1-0.2,0.2-0.3c0.2-0.1,0.3-0.2,0.4-0.2c0.2-0.1,0.2-0.2,0.2-0.3c0-0.2-0.1-0.2-0.3-0.3s-0.2-0.1,0-0.1
		s0.4-0.1,0.5-0.2c0.5-0.4,0.5-0.6-0.2-0.8l-2.1-0.5c-0.2-0.1-0.2-0.2-0.1-0.3c0.1-0.1,0.2-0.2,0.3-0.3c0.1-0.1,0.2-0.2,0.3-0.2
		C536.6,245.8,540.7,246.1,544.1,247.9z"/>
	<path class="st20" d="M697.8,272.6c27.9,22.3,50.2,49.3,66.9,81c3.9,7.3,7.2,15.6,9.8,24.7c1.5,5.2,7.4,6.3,9.7,11.3
		c5.4,11.8-4.9,23.4-17.3,21.7c-4.4-1.5-7.8-4.1-10.2-7.9c-3.2-5.2-2.9-12.6-5.4-18.6c-4.9-12-11.8-24.7-20.5-38.3
		c-13.7-21.3-30.1-39.5-49.3-54.7c-4.2-3.4-8.9-7-14.1-10.8c5.8-2.2,11.7-3.4,17.7-3.8c2.2-0.2,3-1.6,5.1-2.1
		c0.9-0.2,1.6-0.8,2.3-1.6c0.3-0.5,0.8-0.6,1.3-0.5c1,0.4,2,0.7,2.7,0.9C696.7,274.2,697.3,273.8,697.8,272.6z"/>
	<path class="st21" d="M250.2,298.3l-0.1,15.5l-63.5,0.2l-0.2-23.9l0.7-0.3c0.5-0.2,0.9-0.2,1.4,0c2.1,0.8,4.3,1.2,6.6,1.2
		c15.8,0.2,31.6,0.2,47.3-0.2c1.6,0,3-0.9,4.2-1.7c1-0.6,2.3-0.4,3,0.6c0.2,0.3,0.3,0.7,0.4,1.2L250.2,298.3z"/>
	<path class="st22" d="M348,290.8c24.9,0.3,49.8,0.5,74.8,0.4c9.2,0,20.8-0.2,34.7-0.5c22.3-0.5,44-0.5,65.2,0.4
		c4.3,0.2,9.5,1.1,15.5,2.7c1.1,0.3,2.1,0.7,3.1,1.2c0.7,0.3,1.4,0.5,2.2,0.6c1.1,0.1,1.9,0.2,2.3,0.2c19.5,4.5,37.7,11.3,54.8,20.3
		c20.3,11.3,38.1,25.5,53.3,42.7c10.6,12,19.4,23.2,26.3,33.5c2,3,3.4,7.1,3.9,12.1c0.1,0.5-0.2,0.7-0.6,0.8c-0.2,0-0.5,0.2-0.5,0.3
		c-0.1,0.2-0.2,0.4-0.1,0.5c0.5,3,0.5,5.8,1.6,8.8c1.3,4.1,2.4,8.2,3.1,12.2c0.1,0.4,0.2,0.8,0.5,1.2c0.3,0.5,0.5,1.1,0.6,1.6
		c0.9,4.9,1.9,9.1,3.2,12.5c0.1,0.2,0.2,0.3,0.4,0.3c0.3,0,0.5,0.2,0.5,0.5c0.2,4.3,1.1,8.4,2.4,12.2c1,2.9,1.6,6,1.5,9.5
		c-0.1,3.5-0.2,7.1-0.4,10.6l-4.6-21.7c-9.1-36.7-28.2-68.4-54.2-95.4c-28-28.9-68.3-49.3-108.6-55.6c-8.1-1.3-19.7-2-34.8-2
		c-29.1-0.1-57.4,0-85.2,0.2c-0.7,0-1.3,0.5-1.3,1.3v8c0.2,1.1,0.1,2-0.2,2.5c-0.2,0.5-0.9,0.7-2,0.7c-19.1-0.2-38.3-0.2-57.5,0.1
		L348,290.8z"/>
	<path class="st23" d="M284.3,291.9l0.5,21.6c0,0.4,0.4,0.8,0.8,0.8c0.1,0,0.2,0,0.2,0c1.2-0.4,2.3-0.5,3.4-0.6
		c7.1-0.2,13.8-0.1,20.2,0.3c0.6,0,1.1-0.2,1.4-0.7c0.4-0.5,0.6-1.3,0.8-2.1l-0.1,39.2c-8.5-1.7-17.7-2-27.4-0.8L284.3,291.9z"/>
	<path class="st24" d="M854.8,307.3l14.5,31.1l8.3,22.1c-2.7-0.1-4.5-1.7-5.5-5.1c-0.6-2-1.2-3.4-1.7-4.5c-0.8-1.5-1.5-3-2.1-4.5
		c-0.2-0.4-0.2-0.9-0.2-1.3c0-0.7-0.2-1.2-0.8-1.3c-0.5-0.2-0.9-0.5-1.1-1.1c-0.8-1.9-1.8-3.8-3.2-5.5c-0.2-0.3-0.3-0.3-0.2,0.1
		s0.1,0.8-0.2,1.1c-0.2,0.2-0.5,0.3-0.8,0.2c-0.5-0.2-0.8-0.5-0.6-0.8c0.1-0.5,0-0.5-0.4-0.3c-1.5,1-3.1,1.5-5,1.6
		c-0.5,0-1.1,0.2-1.6,0.4L830.9,350l-12.3-24.8c1.3-2.3,2.4-4.6,3.5-7c4.4-8.9,7.5-14.5,9.3-16.6c3.2-3.8,7.1-4.7,11.6-3
		c0.5,0.2,0.9,0.5,1.3,1.1c1.6,2.6,3.5,4.8,5.9,6.8c0.5,0.4,0.9,0.9,1,1.6c0.2,1.1,0.9,1.6,2,1.6c0.6,0,0.9-0.3,0.9-0.9
		C853.8,308.2,854.1,307.6,854.8,307.3z"/>
	<path class="st25" d="M407.7,310.2l0.2,39.5l-59.9,0.5l0.1-36.8c19.1-0.3,38.4-0.3,57.5-0.1c1,0,1.6-0.2,2-0.7
		C407.8,312.1,407.9,311.3,407.7,310.2z"/>
	<path class="st25" d="M250.1,313.7l0.1,34.7l-62.2,0.2c-0.6,0-1,0.3-1.2,0.9c-0.2,0.8-0.2,1.7-0.1,2.7l-0.1-38.3L250.1,313.7z"/>
	<path class="st26" d="M877.5,360.6c4.2,11.4,7.7,23.5,10.4,36.3c-1.8,2.7-3.7,4.2-5.5,4.5c-2.3,0.4-4.6,0.8-7,1.2
		c-0.3,0.1-0.5,0.2-0.6,0.5c-0.1,0.5-0.4,0.8-0.9,0.9l-16.7,3.1c-0.6,0.1-1.2,0.1-1.7-0.2c-4.7-2-7.1-1.2-7.3,2.6l-2.7-15.5
		l-14.9-44l23.3-10.6c0.5-0.2,1.1-0.4,1.6-0.4c1.9-0.1,3.5-0.5,5-1.6c0.4-0.2,0.5-0.2,0.4,0.3c-0.1,0.3,0.2,0.5,0.6,0.8
		c0.3,0.1,0.6,0,0.8-0.2c0.3-0.3,0.4-0.7,0.2-1.1c-0.2-0.4-0.1-0.5,0.2-0.1c1.4,1.9,2.4,3.8,3.2,5.5c0.2,0.5,0.6,0.9,1.1,1.1
		c0.5,0.2,0.9,0.6,0.8,1.3c0,0.5,0.1,0.9,0.2,1.3c0.6,1.5,1.4,3,2.1,4.5c0.5,1,1.1,2.5,1.7,4.5C873,358.9,874.9,360.5,877.5,360.6z"
		/>
	<path class="st27" d="M250.2,348.5l-0.1,30.5c0,0.6-0.3,0.9-0.9,0.9L190,380c-0.9,0.2-1.6,0.2-2.2,0.1c-0.6-0.2-0.9-0.5-0.9-1.2
		l-0.2-26.6c-0.2-1.1-0.2-2,0.1-2.7c0.2-0.5,0.5-0.9,1.2-0.9L250.2,348.5z"/>
	<path class="st28" d="M311.5,350.3V379c0,0.3-0.2,0.5-0.5,0.5h-26.2c-0.3,0-0.6-0.2-0.6-0.6l0,0l-0.1-29.5
		C293.9,348.3,303,348.6,311.5,350.3z"/>
	<path class="st29" d="M408,349.7l0.2,29.6l-59.9,0.5l-0.2-29.7L408,349.7z"/>
	<path class="st30" d="M815.8,375.7c2,1.1,3.8,2.9,5.5,5.4c0.3,0.5,0.5,1,0.5,1.6c-0.1,1.3,0.5,2.1,1.7,2.4c0.5,0.2,0.8,0.5,0.9,0.9
		c0.2,0.6,0.6,0.9,1.3,0.9h1.1c0.5,0,0.9,0.1,1.4,0.3l17.5,6.9l2.7,15.5l4.3,30.2c0.1,0.8,0.5,1.2,1.3,1c17.8-2.7,29.8,3.5,41.4,17
		c3.2,5.9,5.1,12,5.5,18.1c2,26.3-19.1,49.5-46.3,44.3c-8.6-1.6-16-5.5-22.1-11.6c-10.3-11.6-13-25-8.2-39.9
		c1.2-3.6,3.7-8.6,7.6-14.8c0.3-0.5,0.4-1,0.4-1.6C830.1,426.1,824.6,400.6,815.8,375.7z M862.4,498.3c9.3-0.1,16.8-8.1,16.7-18
		c-0.1-9.9-7.7-17.9-17-17.8l0,0c-9.3,0.1-16.8,8.1-16.7,18S853.1,498.4,862.4,498.3L862.4,498.3z"/>
	<path class="st31" d="M408.1,379.3v49.1l-60.1-0.8l0.2-47.7L408.1,379.3z"/>
	<path class="st32" d="M748,411c5.2,16.8,9.2,33.2,12,49.3c2.1,12.1,3.4,25.1,3.8,38.8l-0.3,8c0,0.8-0.7,1.4-1.4,1.3l-59.3-0.2
		c-0.5,0-1,0.2-1.4,0.5c-0.3,0.2-0.6,0.3-0.9,0.3c-0.7,0-1.1-0.3-1.2-1l-0.6-6.8l-0.7-14.8c1,1.5,1.4,3.2,1.1,5.3
		c0,0.1,0,0.1,0.1,0.1l0,0h0.1c1-5.9,1.3-11,0.7-15.4c-0.4-3.4-0.5-6.3-0.2-8.8c0.1-0.6,0.4-1,0.9-1.3c0.2-0.1,0.3-0.2,0.5-0.2
		c0.5-0.2,0.6-0.1,0.5,0.5c-0.6,2.2-1,4.3-1.3,6.4c0,0.1,0,0.1,0.1,0.2c0.2,0,0.2,0-0.2,0c-0.1,0-0.2-0.1-0.2-0.2c0,0,0,0,0-0.1
		c1.5-2.7,2.5-5.5,3-8.1c0.4-2.1,0.8-4.1,1.2-6.2c0.5-3.1,0.5-7.2-1-10.2c-0.6-1.3-0.7-2.7-0.2-4.3c0.2-0.5,0.2-1.1,0.2-1.7
		c-0.7-3.7-1.2-7.4-1.6-11.3c-0.3-3-0.2-6.2,0.3-9.5c0.5-3.2,0.2-6.3-1-9.3c-0.2-0.6-0.2-1.3,0.2-1.9c0.8-1.1,1.1-2.2,1.1-3.4
		c-0.3-5.2,1.3-8.8,4.8-10.9c2.4-1.5,4.8-1.7,7.5-2.5c1.1-0.3,2.2-0.4,3.4-0.3c5.6,0.5,10.9,0.1,15.7-1.3c1.5-0.4,2.7,0.1,3.4,1.4
		c1.7,3.1,3,6.3,3.8,9.4C741.4,405.5,743.8,408.2,748,411z"/>
	<path class="st33" d="M887.9,396.9c3.4,19.8,5.8,40.1,7.3,60.9c-11.6-13.5-23.5-19.8-41.4-17c-0.8,0.1-1.3-0.2-1.3-1l-4.3-30.2
		c0.2-3.8,2.6-4.6,7.3-2.6c0.5,0.2,1.1,0.3,1.7,0.2l16.7-3.1c0.5-0.1,0.8-0.4,0.9-0.9c0.1-0.3,0.3-0.5,0.6-0.5
		c2.3-0.4,4.6-0.8,7-1.2C884.3,401.1,886.1,399.6,887.9,396.9z"/>
	<path class="st34" d="M311.2,434.6l-124.4,0.2v-15.3c0-0.4,0.2-0.6,0.6-0.6l123.1-0.1c0.4,0,0.6,0.3,0.6,0.6V434.6L311.2,434.6z"/>
	<path class="st35" d="M348,427.6l60.1,0.8l-0.2,80.2l-59.7,0.2L348,427.6z"/>
	<path class="st23" d="M311.2,434.6v12.1c0,0.4-0.3,0.7-0.7,0.7l0,0L188,447.6c-0.7,0-1-0.3-1.1-1l-0.2-11.7L311.2,434.6z"/>
	<path class="st36" d="M533.1,516.6c-7.8,9.8-18.6,14.8-32.3,14.8c-30.5,0.1-47.9-35.6-31.2-60.2c10.3-14.2,23.9-19.5,40.8-16
		c11.3,2.3,21.1,10.6,26.3,21C543.3,489.4,542,502.9,533.1,516.6z M518.7,492.8c0-9.3-7.6-16.9-16.9-16.9l0,0
		c-9.3,0-16.9,7.6-16.9,16.9l0,0c0,9.3,7.6,16.9,16.9,16.9C511.1,509.7,518.7,502.1,518.7,492.8z"/>
	<path class="st37" d="M310.2,483.7l0.6,25.7l-26.3-0.9l0.2-23.2c0-0.6,0.5-1.2,1.2-1.2L310.2,483.7z"/>
	<path class="st18" d="M250.1,509l-63.4-0.2l0.2-23.4c0-0.6,0.3-0.9,0.9-0.9l61.1,0.1c0.7,0,1,0.3,1,1L250.1,509z"/>
	<path class="st38" d="M763.8,499.1c0,18-0.5,32.6-1.7,43.9c-0.8,7.3-2.6,17.3-5.5,29.9l-0.1-1.8c0-1.1-0.6-1.6-1.7-1.6
		c-16,0.2-30.8-0.6-46.3,1.5c-0.4,0.1-0.6,0.2-0.8,0.4c-0.2,0.2-0.2,0.5-0.1,0.9c0.1,0.4,0.3,0.6,0.7,0.6
		c11.1,1.6,21.5,1.6,32.6,1.3c5.2-0.2,10.5,0.3,15.6-0.5l-7.2,27.3l-1.6,0.5c-0.5,0.2-1.1,0.1-1.6-0.2c-0.9-0.5-2.1-0.8-3.7-0.8
		c-14.7-0.5-29.5-0.5-44.4-0.3h-1.3c-0.6,0-1-0.3-1.3-0.9c-1.2-3.4-1.7-5.9-1.8-7.4c-0.2-3.7-0.6-7.3-1.2-11.1
		c-0.1-0.5,0-1.1,0.2-1.6c0.2-0.4,0.2-0.9,0.1-1.6c-0.2-0.7-0.3-0.7-0.6-0.1l-1,2.6c-0.5,1.3-0.8,1.3-0.9-0.2l-0.2-10.2
		c2-6.3,3.5-13.7,4.8-22.2c2.3-16.6,3.5-32,3.5-46.5l0.6,6.8c0.1,0.7,0.5,1,1.2,1c0.3,0,0.6-0.2,0.9-0.3c0.4-0.3,0.9-0.5,1.4-0.5
		l59.3,0.2c0.8,0,1.4-0.6,1.4-1.3L763.8,499.1z"/>
	<path class="st39" d="M284.5,508.6l26.3,0.9l0.4,60l-26.3,0.1l-0.5-7.7L284.5,508.6z"/>
	<path class="st40" d="M250.1,509v60.2l-0.1,0.7l-63.3-0.2v-60.9L250.1,509z"/>
	<path class="st41" d="M408,508.6L408,573c-0.9,0.4-1.8,0.5-2.7,0.5l0.4-0.5c0.8-0.9,0.7-2.2-0.1-3c-0.4-0.4-0.9-0.6-1.6-0.5
		c-18.5,0.9-37.1,1-55.9,0.3v-61L408,508.6z"/>
	<path class="st42" d="M284.5,561.8l0.5,7.7c-0.5,1.1-0.5,2-0.2,2.7c0.2,0.5,0.6,0.9,1.3,0.9h25.3l0.1,27.3
		c-0.2,1.1-1.6,1.2-4.2,0.2c-1.4-0.5-2.7-0.7-4-0.6c-4.9,0.2-9.8,0.2-14.5,0c-1.4-0.1-2.6,1-2.7,2.4c0,0.2,0,0.3,0,0.5
		c0.4,3-0.1,4.5-1.5,4.4L284.5,561.8z"/>
	<path class="st18" d="M896.4,577.1c-31.3-0.8-62.5-0.9-93.8-0.2c-3.5,0.1-7.3,0.9-11.2,1c0.9-10.6,7-15.9,18.1-16
		c28.7,0,57.3-0.2,85.8-0.3c0.7,0,1.1,0.4,1.1,1.1L896.4,577.1z"/>
	<path class="st43" d="M249.9,569.9c0.3,1.2,0.3,2,0.2,2.5c-0.3,0.9-0.9,1.3-1.8,1.3l-61.6,0.2l-0.1-4.2L249.9,569.9z"/>
	<path class="st38" d="M250.1,569.2l0.5,31.2l-59.3-0.5c-0.5,0-1.1,0.2-1.6,0.5c-1.5,0.9-2.5,1.3-3,0.7l0.2-27.2l61.6-0.2
		c0.9,0,1.6-0.5,1.8-1.3c0.2-0.5,0.1-1.3-0.2-2.5L250.1,569.2z"/>
	<path class="st43" d="M311.2,569.4l0.1,3.6H286c-0.6,0-1-0.3-1.3-0.9c-0.3-0.7-0.2-1.6,0.2-2.7L311.2,569.4z"/>
	<path class="st43" d="M405.3,573.4l-57.1,1.2l0.1-4.8c18.8,0.7,37.3,0.6,55.9-0.3c1.2-0.1,2.2,0.9,2.2,2c0,0.5-0.2,1.1-0.5,1.6
		L405.3,573.4z"/>
	<path class="st44" d="M756.7,573c0.2,0,0.2,0.3,0,0.9c-5.2,0.9-10.5,0.4-15.6,0.5c-11,0.2-21.5,0.2-32.6-1.3
		c-0.4-0.1-0.6-0.3-0.7-0.6c-0.1-0.4,0-0.7,0.1-0.9c0.1-0.2,0.4-0.4,0.8-0.4c15.5-2.2,30.3-1.3,46.3-1.5c1.1,0,1.6,0.5,1.7,1.6
		L756.7,573z"/>
	<path class="st45" d="M690.3,570l0.2,10.2c0,1.5,0.3,1.5,0.9,0.2l1-2.6c0.2-0.7,0.5-0.6,0.6,0.1c0.1,0.6,0.1,1.1-0.1,1.6
		c-0.2,0.5-0.2,1.1-0.2,1.6c0.5,3.7,0.9,7.3,1.2,11.1c0.1,1.5,0.7,4,1.8,7.4c0.2,0.6,0.6,0.9,1.3,0.9h1.3c-3.1,2.7-4.8,5-5.1,6.7
		c-0.4,2.4-1,4.8-2,7c0,0.1-0.1,0.1-0.2,0.1c-0.2,0-0.4,0-0.5,0.1c-0.2,0.1-0.3,0.2-0.4,0.4c-0.4,1.1-1.2,2.3-2.4,3.4
		c-0.7,0.7-1,1.6-0.9,2.7c0.1,0.5,0,0.9-0.2,1.3c-0.9,2-1.8,3.8-2.5,5.8c-1,2.9-2.4,5.7-4.2,8.4c-0.3,0.5-0.7,0.8-1.2,1.1l-1.1,0.5
		c-0.5,0.3-1,0.7-1.3,1.2c-0.5,0.7-1.1,1.3-1.9,1.8c-0.5,0.3-0.8,0.8-1,1.3c-0.4,1.1-1.2,1.8-2.3,2.1c-0.5,0.2-1.1,0.5-1.5,0.9
		c-2.7,3.1-5.5,6.4-8.1,9.9c-2.4,3.2-5.3,6.4-8.8,9.6c-11.3,10.6-20.9,18.8-28.7,24.5c-20.8,15.2-44.5,25.7-71,31.4
		c-13.4,2.9-24.4,4.5-33.1,4.7c-21.1,0.6-44.5,0.9-70.1,0.9c-25.5-0.1-55.3-1-83.1-0.8c-5.3,0.1-12.7,1.4-17.3-1.4
		c-0.5-0.3-0.9-0.2-1.1,0.4l-0.3,0.9l0.1-37.5l0.2-45.6l60,0.6l-0.2,68.5c0,0.5,0.4,0.9,0.9,0.9c38.5,0.2,77.1,0,115.7-0.4
		c7.9-0.1,17.3-1.4,28-3.9c19.8-4,36.7-10.5,50.9-19.8C646.2,660.5,675.2,621,690.3,570z"/>
	<path class="st46" d="M408,573l0.2,27.4l-55.9-0.4c-0.6,0-1.1,0.2-1.6,0.6l-0.4,0.4c-0.5,0.5-0.9,0.5-1.3,0l-0.9-1l0.2-25.5
		l57.1-1.2C406.2,573.6,407.1,573.4,408,573z"/>
	<path class="st47" d="M896.4,577.1l-0.1,12.5c0,0.6-0.3,0.9-0.9,0.9c-27.6,0.1-55.1,0.2-82.5,0.2c-6.1,0-10.4-0.5-12.8-1.8
		c-4.2-2-7.1-5.7-8.7-11c3.9-0.2,7.7-0.9,11.2-1C833.9,576.2,865.1,576.3,896.4,577.1z"/>
	<path class="st48" d="M250.6,600.4v39.8l-0.1,2.9c-18.5-0.4-37-0.4-55.3-0.1c-1.2,0-2.7-0.2-4.3-0.6c-1.6-0.4-3-0.5-4.4-0.5
		l0.2-40.8c0.5,0.5,1.6,0.2,3-0.7c0.5-0.3,1-0.5,1.6-0.5L250.6,600.4z"/>
	<path class="st48" d="M311.4,600.4l-0.5,53.5l-1.1-9.1c-0.2-1.4-1.3-2.5-2.7-2.6l-22.6-0.8l0.1-34.2c1.4,0,1.9-1.4,1.5-4.4
		c-0.2-1.4,0.8-2.7,2.2-2.9c0.2,0,0.3,0,0.5,0c4.8,0.2,9.6,0.2,14.5,0c1.3-0.1,2.6,0.2,4,0.6C309.8,601.6,311.2,601.5,311.4,600.4z"
		/>
	<path class="st49" d="M348,600.1l0.9,1c0.5,0.5,0.9,0.5,1.3,0l0.4-0.4c0.4-0.4,0.9-0.6,1.6-0.6l55.9,0.4l0.1,42.7l-60-0.6
		L348,600.1z"/>
	<path class="st49" d="M749.5,601.2c-2.1,5.8-3.5,9.4-4.2,11c-3,7-9.4,20.2-19,39.5c-2-0.7-4.4-1.7-7.1-3.2
		c-2.3-1.3-4.8-2.3-7.2-3.1c-7-2.5-14-2.5-21.1-0.2c-16.3,5.5-26.9,16.8-31.6,33.8c-3.6,12.9,2.3,27,11,36.5
		c0.4,0.4,0.7,0.9,0.9,1.4c0.3,0.9,1,1.4,2.1,1.3c0.6-0.1,1.1,0.2,1.4,0.6l2.1,2.7c-0.9-0.9-1.9-1.6-2.9-2c-0.5-0.2-0.9-0.2-1.3,0.2
		c-13.3,12.3-26.5,22.3-39.7,30.2c-20.1,11.9-42.3,21.1-66.4,27.4c-10.1,2.7-21.4,4.6-34,5.9c-3.2,0.3-6.5,0.5-9.8,0.7
		c-5.4,0.2-10.7-3.3-15.8-5.5c-12.8-5.8-29.5-4.5-42.3,0.1c-0.1,0-2.4,1.2-7.1,3.5c-4.4,2.2-9.1,3.3-13.9,3.4
		c-31.7,0.2-63,0.4-93.8,0.5c-0.8,0-1.5-0.6-1.5-1.5l-0.2-58.8l0.3-0.9c0.2-0.6,0.6-0.7,1.1-0.4c4.5,2.8,12,1.5,17.3,1.4
		c27.7-0.2,57.6,0.7,83.1,0.8c25.6,0.1,49.1-0.2,70.1-0.9c8.8-0.3,19.8-1.9,33.1-4.7c26.5-5.7,50.2-16.2,71-31.4
		c7.8-5.7,17.3-13.9,28.7-24.5c3.5-3.3,6.4-6.5,8.8-9.6c2.7-3.5,5.4-6.9,8.1-9.9c0.4-0.5,0.9-0.8,1.5-0.9c1.1-0.3,1.9-1,2.3-2.1
		c0.2-0.5,0.5-0.9,1-1.3c0.7-0.5,1.3-1.1,1.9-1.8c0.4-0.5,0.8-0.9,1.3-1.2l1.1-0.5c0.5-0.2,0.9-0.6,1.2-1.1c1.7-2.7,3.1-5.5,4.2-8.4
		c0.7-2,1.5-3.8,2.5-5.8c0.2-0.4,0.3-0.9,0.2-1.3c-0.1-1.1,0.2-2,0.9-2.7c1.3-1.2,2-2.3,2.4-3.4c0.1-0.2,0.2-0.3,0.4-0.4
		c0.2-0.1,0.4-0.1,0.5-0.1c0.1,0,0.2,0,0.2-0.1c0.9-2.3,1.6-4.6,2-7c0.3-1.7,2-4,5.1-6.7c14.8-0.2,29.7-0.1,44.4,0.3
		c1.6,0.1,2.8,0.3,3.7,0.8c0.5,0.3,1,0.4,1.6,0.2L749.5,601.2z"/>
	<path class="st50" d="M886.4,643.1c-17.1,0.6-33.9,0.6-50.4-0.1c-2.7-0.2-4.5,0.9-5.4,3c-10.3,23.4-20.5,46.8-34.5,67
		c-15,21.6-30.1,39.9-45.4,54.8c-19.1,18.8-40.1,34.5-62.7,47.2c-24.8,13.8-51.2,24.3-79.3,31.3c-24.1,6-48.7,8.3-73.6,6.7
		c2.5-7,4.1-14.5,4.8-22.4c0.2-1.5,1.4-2.6,2.8-2.5c27.5,0.9,54.2-1.9,80.6-10.1c25.9-8,47-17.6,63.5-28.6
		c16.2-10.8,32.8-24.1,50-40.2c24.2-22.7,43.8-48.9,58.6-78.8c6.1-12.3,10.9-25.6,15.2-38.8c0.2-0.8,0.9-1.3,1.8-1.3
		c22.3,0.2,44.8,0.2,67.4,0.2c2.7,0,5.4-0.2,7.8-0.5c0.6-0.1,1.3,0.4,1.3,1c0,0.2,0,0.3,0,0.4L886.4,643.1z"/>
	<path class="st51" d="M310.9,653.9v71.6l-22.4-0.1c-0.5,0-1.1,0.2-1.6,0.5l-1,0.6c-0.4,0.2-0.9,0.2-1.2-0.3
		c-0.1-0.2-0.2-0.3-0.2-0.5l-0.2-46.8l0.1-37.4l22.6,0.8c1.4,0.1,2.6,1.1,2.7,2.6L310.9,653.9z"/>
	<path class="st52" d="M250.5,643l-0.5,26.5c-2.3,0.9-7.3,1-14.8,0.4c-6.4-0.5-21.1,0-44,1.6c-0.6,0-1.1,0.3-1.4,0.8l-0.5,0.7
		c-0.4,0.5-0.9,0.6-1.4,0.5c-0.9-0.2-1.3-0.7-1.3-1.6l-0.2-30.2c1.4-0.1,2.8,0.1,4.4,0.5c1.7,0.4,3.1,0.6,4.3,0.6
		C213.6,642.6,232,642.7,250.5,643z"/>
	<path class="st53" d="M886.4,643.1c-13.2,40.1-31.1,76.3-53.8,108.6c-9,12.9-21.2,27.3-36.3,43.4c-29.1,30.5-61,54.3-96,71.1
		c-17.7,8.5-37.7,17-57.6,22.8c-17.5,5.1-34.6,9.1-51.2,12c-18.6,3.4-36.3,4.4-57.3,4.5c-34.9,0.2-69.9,0.2-105,0
		c2-1.6,4.2-2.4,7-2.3c0.7,0,1.3-0.5,1.3-1.3c0-0.2-0.1-0.5-0.2-0.7c-0.9-1.7-0.5-3.3,1.3-4.7c0.5-0.4,0.8-0.9,0.7-1.5
		c0-1.8,0.4-3.5,1.1-5c0.3-0.6,0.3-1.3-0.1-2c-0.3-0.5-0.3-1.3,0-1.8c0.9-1.6,1.1-3.1,0.5-4.6c-0.2-0.5-0.2-1.1,0-1.6
		c0.9-2-0.2-3.5,2-4.8c0.3-0.2,0.5-0.5,0.7-0.8c0.3-0.8,0.4-1.5,0.2-2.3c-0.2-0.5,0-0.8,0.5-0.8c0.7,0,1.3-0.3,1.7-0.9
		c0.3-0.4,0.7-0.5,1.2-0.2c1.3,0.9,2,1.1,2,0.3c24.9,21.4,61.4,17.8,80.9-8.4c2-2.7,3-6.4,5.1-9.4c24.9,1.6,49.5-0.6,73.6-6.7
		c28.1-7,54.6-17.5,79.3-31.3c22.6-12.7,43.5-28.4,62.7-47.2c15.2-15,30.4-33.3,45.4-54.8c14-20.2,24.1-43.6,34.5-67
		c0.9-2.1,2.7-3.1,5.4-3C852.4,643.7,869.2,643.7,886.4,643.1z"/>
	<path class="st54" d="M726.3,651.7c13,10.4,18.9,23.1,17.6,38.4c-1.1,11.9-6.1,21.7-15.1,29.5c-14.5,12.4-36.9,15.2-51.9,2
		l-2.1-2.7c-0.4-0.5-0.9-0.7-1.4-0.6c-1.1,0.1-1.8-0.3-2.1-1.3c-0.2-0.5-0.5-1-0.9-1.4c-8.8-9.5-14.6-23.6-11-36.5
		c4.8-17,15.2-28.3,31.6-33.8c7.1-2.4,14.1-2.3,21.1,0.2c2.4,0.9,4.8,2,7.2,3.1C721.8,649.9,724.2,651,726.3,651.7z M699.8,707.5
		c11.1,0.9,20.9-7.6,21.8-19l0,0c0.9-11.4-7.3-21.4-18.4-22.3c-11.1-0.9-20.9,7.6-21.8,19l0,0C680.5,696.6,688.7,706.6,699.8,707.5z
		"/>
	<path class="st55" d="M250,669.5l-0.2,49.9l-0.2,4.5c-0.1,1.2-1,2.1-2.3,2.1l-60.9-0.3l0.2-53.7c0,0.9,0.5,1.4,1.3,1.6
		c0.5,0.1,1.1-0.1,1.4-0.5l0.5-0.7c0.4-0.5,0.9-0.7,1.4-0.8c22.9-1.6,37.6-2.2,44-1.6C242.7,670.5,247.6,670.4,250,669.5z"/>
	<path class="st56" d="M284.4,678.9l0.2,46.8c0,0.5,0.4,0.9,0.9,0.9c0.2,0,0.3-0.1,0.5-0.2l1-0.6c0.5-0.3,1-0.5,1.6-0.5l22.4,0.1
		l0.3,58.8c0,0.6-0.5,1.2-1.2,1.2l0,0l-24,0.2c-0.8,0-1.5-0.6-1.5-1.4l-0.3-18.4L284.4,678.9z"/>
	<path class="st57" d="M249.7,719.4l0.1,64.3l-63.8-0.5l0.2-57.6l60.9,0.3c1.2,0,2.2-0.9,2.3-2.1L249.7,719.4z"/>
	<path class="st58" d="M249.8,783.7l0.2,21c-0.8,5-1,10.1-0.7,15.3c0.3,5-0.5,9.5-4.1,12.8c-3.6,3.4-8,7.6-13.2,12.6
		c-3,2.9-7.3,4.5-12.6,4.7c-11.3,0.5-21.8-0.1-31.8-1.6c-0.8-0.1-1.3-1.1-1.5-2.9l-0.2-62.3L249.8,783.7z"/>
	<path class="st59" d="M250.1,804.7l0.2,22.2c0,0.6,0.3,1,0.9,1.3c1.9,0.7,3.8,0.6,5.6-0.2c1.1-0.5,3.6-0.6,7.6-0.4
		c-3.2,2.1-8,5.9-14.5,11.1c-5.7,4.7-10.3,9.1-13.9,13.4c-0.4,0.5-0.3,0.7,0.3,0.7l42.1,0.2c-1.5,1.3-2.4,1.8-2.8,1.8
		c-2.3-0.2-3.4,0.8-3.8,3c-0.2,2-0.8,4-1.5,5.9c-0.6,1.5-1.2,3.2-1.5,5.2c-0.6,3.4-1.7,7-3.2,10.5c-0.2,0.6-0.8,0.9-1.4,0.9h-2.6
		c-0.5,0-1,0.2-1.3,0.8c-1.1,2-2.3,4-3.6,6c-0.9,1.3-1.5,2.8-2,4.6c-0.4,1.6-0.9,3.2-1.6,4.8c-0.2,0.5-0.3,1.1-0.3,1.6
		c0.1,3.8-2.7,4-5.2,5.4c-0.9,0.5-0.9,0.9,0.1,1.3l1.3,0.5c0.7,0.2,0.7,0.4-0.1,0.4l-19.6,0.4c-13.8,0.2-27.5,0.2-41.3,0.3
		c-0.6,0-1.4-0.2-2.2-0.7l0.2-52.6l0.2-7.3c0.2,1.8,0.7,2.8,1.5,2.9c9.9,1.5,20.5,2,31.8,1.6c5.4-0.2,9.6-1.8,12.6-4.7
		c5.2-5,9.7-9.1,13.2-12.6c3.4-3.3,4.3-7.9,4.1-12.8C249,814.8,249.3,809.7,250.1,804.7z"/>
	<path class="st60" d="M507.1,831.5c0,12.1-9.8,22-22,22l0,0c-12.1,0-22-9.8-22-22l0,0c0-12.1,9.8-22,22-22l0,0
		C497.3,809.5,507.1,819.4,507.1,831.5L507.1,831.5z M492.3,843.7c6.3-4.7,7.4-13.8,2.6-20.2c-4.8-6.4-13.8-7.8-20.1-3l0,0
		c-6.3,4.7-7.4,13.8-2.6,20.2l0,0C477.1,847,486.1,848.4,492.3,843.7L492.3,843.7z"/>
	
		<ellipse transform="matrix(0.7986 -0.6018 0.6018 0.7986 -403.3707 458.5669)" class="st61" cx="483.6" cy="832" rx="14.1" ry="14.5"/>
	<path class="st62" d="M264.3,827.4l164.3,0.5c0.8,0,1.4,0.6,1.4,1.4c0,0,0,0,0,0.1c-0.2,8,1.4,15.9,4.8,23.7
		c-1.1,0.2-2.3,0.1-3.4-0.2c-1.4-0.3-2.5-0.5-3.4-0.5c-41.3,0.3-82.4,0.5-123.7,0.5c-8.8,0-17.3,0-25.9-0.1l-42.1-0.2
		c-0.6,0-0.7-0.2-0.3-0.7c3.6-4.3,8.2-8.8,13.9-13.4C256.3,833.3,261.1,829.6,264.3,827.4z"/>
	<path class="st63" d="M903.5,866.9v11.7c-1.3,8.7-5.5,16.6-11.9,22.7c-6.6,6.3-15.2,10-24.1,10.6c-16.9,1.3-32.7-8.4-39.2-24.1
		c-7.2-17.3-1.2-37.3,14.4-47.8c8.4-5.6,18.5-7.8,28.5-6.2C887.9,836.7,901,850,903.5,866.9z M881.7,869.2c-1.9-8.6-10.7-14-19.8-12
		c-9.1,2-15,10.5-13.1,19.1c1.9,8.6,10.7,14,19.8,12C877.6,886.3,883.5,877.7,881.7,869.2z"/>
	<path class="st64" d="M434.8,853.1c3.4,6.9,8,12.7,14.1,17.7c0,0.8-0.6,0.6-2-0.3c-0.4-0.3-0.8-0.3-1.2,0.2c-0.5,0.5-1,0.9-1.7,0.9
		c-0.5,0-0.7,0.3-0.5,0.8c0.2,0.8,0.2,1.5-0.2,2.3c-0.2,0.3-0.4,0.5-0.7,0.8c-2.1,1.3-1.2,2.9-2,4.8c-0.2,0.5-0.2,1.1,0,1.6
		c0.7,1.5,0.5,3-0.5,4.6c-0.3,0.5-0.4,1.3,0,1.8c0.4,0.6,0.4,1.3,0.1,2c-0.8,1.5-1.2,3.1-1.1,5c0,0.6-0.2,1.1-0.7,1.5
		c-1.8,1.4-2.2,3-1.3,4.7c0.4,0.6,0.2,1.4-0.5,1.8c-0.2,0.2-0.5,0.2-0.7,0.2c-2.7-0.2-5,0.6-7,2.3L231.1,906l-1.7-0.1l19.6-0.4
		c0.8,0,0.8-0.2,0.1-0.4l-1.3-0.5c-0.9-0.3-0.9-0.8-0.1-1.3c2.6-1.5,5.2-1.6,5.2-5.4c0-0.5,0.1-1.1,0.3-1.6c0.7-1.5,1.2-3.1,1.6-4.8
		c0.4-1.8,1.1-3.3,2-4.6c1.3-2,2.5-4,3.6-6c0.3-0.5,0.7-0.8,1.3-0.8h2.6c0.7,0,1.2-0.3,1.4-0.9c1.5-3.5,2.5-7,3.2-10.5
		c0.4-1.9,0.9-3.6,1.5-5.2c0.8-1.9,1.3-3.8,1.5-5.9c0.2-2.3,1.5-3.3,3.8-3c0.4,0.1,1.4-0.5,2.8-1.8c8.6,0,17.3,0.1,25.9,0.1
		c41.3,0,82.4-0.2,123.7-0.5c0.9,0,2,0.2,3.4,0.5C432.6,853.1,433.7,853.2,434.8,853.1z"/>
	<path class="st53" d="M903.5,866.9c0.5,3.9,0.5,7.9,0,11.7V866.9z"/>
</g>
</svg>
